PathFileType	4	(X/Y/Z)	Walk6.trc
DataRate	CameraRate	NumFrames	NumMarkers	Units	OrigDataRate	OrigDataStartFrame	OrigNumFrames
200.000000	200.000000	4	58	mm	200.000000	447	562
Frame#	Times		RBHD		RASI		RACR1		RUA1		RFA1		RCAR		C7		LFA1		RElbow		RTH3		RTH2		LElbowM		RTB3		LTH2		RTH1		RTB1		RLFC		RMT1		RTB2		RMT5		RTB4		LACR1		LTH3		LElbow		RWRR		LTH4		LWRU		LPSI		RPSI		LTB1		T10		LWRR		LLFC		RWRU		LBHD		LTB3		LTB2		RFHD		LTH1		LTB4		LMT1		LFHD		RBack		LMMAL		RTH4		LASI		LCAL		LLMAL		CLAV		LCAR		LMT5		RLMAL		LToe		RToe		RMMAL		LUA1		RElbowM		RCAL
			X1	Y1	Z1	X2	Y2	Z2	X3	Y3	Z3	X4	Y4	Z4	X5	Y5	Z5	X6	Y6	Z6	X7	Y7	Z7	X8	Y8	Z8	X9	Y9	Z9	X10	Y10	Z10	X11	Y11	Z11	X12	Y12	Z12	X13	Y13	Z13	X14	Y14	Z14	X15	Y15	Z15	X16	Y16	Z16	X17	Y17	Z17	X18	Y18	Z18	X19	Y19	Z19	X20	Y20	Z20	X21	Y21	Z21	X22	Y22	Z22	X23	Y23	Z23	X24	Y24	Z24	X25	Y25	Z25	X26	Y26	Z26	X27	Y27	Z27	X28	Y28	Z28	X29	Y29	Z29	X30	Y30	Z30	X31	Y31	Z31	X32	Y32	Z32	X33	Y33	Z33	X34	Y34	Z34	X35	Y35	Z35	X36	Y36	Z36	X37	Y37	Z37	X38	Y38	Z38	X39	Y39	Z39	X40	Y40	Z40	X41	Y41	Z41	X42	Y42	Z42	X43	Y43	Z43	X44	Y44	Z44	X45	Y45	Z45	X46	Y46	Z46	X47	Y47	Z47	X48	Y48	Z48	X49	Y49	Z49	X50	Y50	Z50	X51	Y51	Z51	X52	Y52	Z52	X53	Y53	Z53	X54	Y54	Z54	X55	Y55	Z55	X56	Y56	Z56	X57	Y57	Z57	X58	Y58	Z58

447	2.235	703.46	1566.4	377.61	761.5	928.81	429.25	731.94	1382.1	452.28	647.72	1202.8	527.93	580.86	943.52	576.77	572.27	755.85	582.92	672.95	1433	302.31	788.62	1009.4	-20.333	574.76	1089.8	547.4	827.06	559.48	465.18	845.91	675.89	446.65	630.96	1096.4	75.371	987.17	216.47	381.33	736.95	632.24	149.11	746.01	729.73	485.07	934.25	399.26	371.17	868.59	471.92	448.14	1121.2	92.969	345.04	946.12	307.1	449.19	1099.1	82.109	425.98	962.01	310.72	378.33	714.03	1425.2	129.3	653.87	555.3	120.16	656.22	1106.3	-3.3274	613.89	800.89	544.03	674.47	641.19	103.46	817.49	893.61	-11.364	583.78	954.63	226.26	580.42	952.69	331.32	617.08	347.85	206	575.32	1124.1	281.31	874.72	937.8	27.894	610.02	442.14	139.64	541.97	816.77	570.1	695.05	1567.5	238.61	539.97	179.84	225.86	555.35	266.57	147.66	884.85	1603.3	333.01	697.16	736.08	93.797	576.53	264.41	216.23	592.27	34.65	284.95	878.06	1597.7	252.08	596.54	1343.4	388	467.2	97.516	289.06	786.82	644.58	479.46	755.47	938.68	126.41	382.66	46.257	245.07	440.8	80.311	200.49	806.82	1349.8	289.7	901.68	892.34	-19.635	567.6	30.041	192.33	965.17	99.656	424.43	641.26	24.674	275.64	1158.7	119.66	371.71	987.15	120.52	338.76	681.1	1235.4	23.451	557.64	1069.3	453.72	936.01	37.026	383.34
448	2.24	710.04	1565	378.43	768.14	927.77	429.7	738.17	1381	452.68	653.37	1201.9	528.18	585.25	942.88	576.96	575.49	755.19	583.24	679.59	1432	302.76	796.87	1009.4	-19.788	579.87	1089.1	547.5	832.96	557.87	465.4	851.57	674.33	446.77	638.62	1095.6	75.573	997.91	217.66	381.12	741.7	631.18	149.22	751.79	728.17	485.82	942.18	399.56	371.31	875.46	471.48	448.04	1134.2	96.29	344.66	955.78	307.52	449.23	1112.4	84.893	425.89	971.14	311.35	378.47	721.09	1424.1	129.83	657.94	554.89	120.54	663.69	1105.2	-3.1121	617.43	799.34	543.16	679.46	640.45	103.54	826.56	893.99	-10.586	590.16	953.29	227.13	587.15	951.39	332.06	619.69	347.33	206.3	581.67	1123	281.79	883.29	938.16	28.541	613.51	442.02	139.96	545.8	816.44	570.07	701.38	1566.3	239.2	541.29	179.94	225.89	557.44	266.68	147.85	891.36	1602.2	333.65	702.53	735.34	93.992	578.68	264.15	216.28	592.35	34.62	284.89	884.66	1596.7	252.97	603.07	1342.2	387.85	467.73	98.171	289.14	792.68	642.94	480	761.46	937.52	126.79	382.88	47.622	245.03	441.38	81.409	200.44	813.33	1348.5	290.45	910.42	892.83	-19.111	567.56	29.987	192.36	977.78	100.48	424.21	641.31	24.598	275.7	1171.4	123.47	371.17	999.56	121.74	338.41	688.64	1234.5	24.046	562.91	1068.7	453.8	949.94	37.048	382.76
449	2.245	716.74	1563.8	379.2	775.07	926.62	430.18	744.33	1379.8	453.29	659.11	1201	528.57	589.9	942.26	577.1	578.99	754.5	583.33	686.18	1430.8	303.14	804.95	1009.1	-19.466	585.04	1088.4	547.52	839.34	556.51	465.51	857.32	673.02	446.89	645.98	1094.8	75.595	1008.3	218.57	380.93	746.5	630.24	149.32	757.94	727.27	487.18	950	399.83	371.54	882.46	470.94	447.96	1146.4	99.686	344.29	964.98	308.1	449.33	1124.7	87.317	425.3	980.08	311.98	378.42	728.43	1423.1	130.27	661.98	554.43	121.04	671.24	1104.4	-3.0158	621.26	797.91	542.46	684.06	640.02	104.01	835.41	893.6	-9.4856	596.6	952.16	227.9	593.92	950.19	333.05	622.78	346.82	206.55	588.14	1122	282.24	891.55	938.5	29.27	617.04	441.8	140.31	549.72	815.99	570.15	707.8	1565	240.13	542.69	180.02	225.87	559.4	266.87	147.97	897.71	1601.2	334.53	707.88	734.62	94.501	580.8	264	216.46	592.43	34.612	284.75	891.06	1595.7	253.66	609.65	1341.2	388.18	468.29	98.86	289.16	798.86	641.64	480.44	767.64	936.42	127.02	383.15	48.949	245.27	441.76	82.393	200.5	820.14	1347.5	290.98	919.21	893.28	-18.363	567.54	29.96	192.39	989.77	101.23	423.52	641.34	24.53	275.76	1183.4	127.12	371.05	1011.5	122.95	337.84	696.13	1233.6	24.546	567.92	1068.1	453.89	962.97	37.17	381.82
450	2.25	723.29	1562.5	379.95	782.04	925.57	430.55	750.84	1378.5	453.76	665.13	1200.1	528.98	594.56	941.59	577.47	582.6	753.82	583.36	692.85	1429.5	303.64	812.78	1008.8	-18.727	590.31	1087.8	547.64	846.06	555.66	465.63	863.48	672.02	446.81	653.41	1093.9	75.598	1018	219.36	380.61	751.48	629.16	149.35	764.15	725.92	487.38	957.95	399.93	371.71	889.73	470.42	447.88	1157.8	102.67	344.04	973.62	308.25	449.51	1135.8	89.316	424.68	989.05	312.47	378.24	735.62	1422.2	130.84	666.16	553.91	121.17	678.73	1103.5	-2.9711	625.33	796.75	542.03	688.68	639.5	104.57	843.68	893.56	-9.4551	602.94	950.71	228.73	600.25	949	333.87	625.85	346.18	206.67	594.84	1121.2	282.84	899.86	938.66	29.853	620.66	441.48	140.68	553.61	815.35	570.54	714.38	1563.9	240.92	544.24	180.32	225.99	561.54	267.19	148.06	904.21	1600	335.22	713.37	733.76	94.704	582.93	263.86	216.6	592.52	34.606	284.79	897.49	1594.7	254.56	616.11	1340.1	388.52	469.23	99.797	289.08	805.21	640.66	481.04	773.72	935.17	127.4	383.48	50.568	245.24	442.24	83.608	200.52	826.96	1346.1	291.59	927.9	893.71	-17.549	567.54	29.911	192.41	1000.7	101.51	422.72	641.44	24.456	275.83	1194.5	130.34	370.86	1022.6	123.93	337.21	703.58	1232.8	24.842	573.53	1067.7	454.01	974.87	37.224	380.45
